<?xml version="1.0" encoding="UTF-8" standalone="no"?>
<!-- Created with Inkscape (http://www.inkscape.org/) -->

<svg
   width="210mm"
   height="297mm"
   viewBox="0 0 210 297"
   version="1.1"
   id="svg1"
   xml:space="preserve"
   inkscape:version="1.3.2 (091e20e, 2023-11-25)"
   sodipodi:docname="Gibbs.svg"
   xmlns:inkscape="http://www.inkscape.org/namespaces/inkscape"
   xmlns:sodipodi="http://sodipodi.sourceforge.net/DTD/sodipodi-0.dtd"
   xmlns="http://www.w3.org/2000/svg"
   xmlns:svg="http://www.w3.org/2000/svg"><sodipodi:namedview
     id="namedview1"
     pagecolor="#ffffff"
     bordercolor="#666666"
     borderopacity="1.0"
     inkscape:showpageshadow="2"
     inkscape:pageopacity="0.0"
     inkscape:pagecheckerboard="0"
     inkscape:deskcolor="#d1d1d1"
     inkscape:document-units="mm"
     inkscape:zoom="1.0792708"
     inkscape:cx="412.31543"
     inkscape:cy="250.63219"
     inkscape:window-width="1440"
     inkscape:window-height="806"
     inkscape:window-x="0"
     inkscape:window-y="66"
     inkscape:window-maximized="0"
     inkscape:current-layer="g2" /><defs
     id="defs1"><clipPath
       clipPathUnits="userSpaceOnUse"
       id="clipPath47"><rect
         style="fill:#ffffff;stroke:#999999;stroke-width:1.73171;stroke-linecap:butt;stroke-linejoin:bevel;stroke-miterlimit:4.3;stroke-dasharray:none"
         id="rect47"
         width="208.63651"
         height="137.76703"
         x="-7.2342563"
         y="-13.747381" /></clipPath><clipPath
       clipPathUnits="userSpaceOnUse"
       id="clipPath48"><rect
         style="fill:#ffffff;stroke:#999999;stroke-width:1.73171;stroke-linecap:butt;stroke-linejoin:bevel;stroke-miterlimit:4.3;stroke-dasharray:none"
         id="rect48"
         width="208.63651"
         height="137.76703"
         x="4.8397436"
         y="-63.836388"
         transform="scale(1,-1)" /></clipPath><clipPath
       clipPathUnits="userSpaceOnUse"
       id="clipPath49"><rect
         style="fill:#ffffff;stroke:#999999;stroke-width:1.73171;stroke-linecap:butt;stroke-linejoin:bevel;stroke-miterlimit:4.3;stroke-dasharray:none"
         id="rect49"
         width="208.63651"
         height="137.76703"
         x="4.8397436"
         y="-63.836388"
         transform="scale(1,-1)" /></clipPath><clipPath
       clipPathUnits="userSpaceOnUse"
       id="clipPath50"><rect
         style="fill:#ffffff;stroke:#999999;stroke-width:1.73171;stroke-linecap:butt;stroke-linejoin:bevel;stroke-miterlimit:4.3;stroke-dasharray:none"
         id="rect50"
         width="208.63651"
         height="137.76703"
         x="4.8397436"
         y="-63.836388"
         transform="scale(1,-1)" /></clipPath><clipPath
       clipPathUnits="userSpaceOnUse"
       id="clipPath55"><rect
         style="fill:#ffffff;stroke:#999999;stroke-width:0.817934;stroke-linecap:butt;stroke-linejoin:bevel;stroke-miterlimit:4.3;stroke-dasharray:none"
         id="rect56"
         width="189.30188"
         height="126.53175"
         x="33.480652"
         y="-5.7674294" /></clipPath><clipPath
       clipPathUnits="userSpaceOnUse"
       id="clipPath56"><rect
         style="fill:#ffffff;stroke:#999999;stroke-width:0.817934;stroke-linecap:butt;stroke-linejoin:bevel;stroke-miterlimit:4.3;stroke-dasharray:none"
         id="rect57"
         width="189.30188"
         height="126.53175"
         x="45.554653"
         y="-55.856434"
         transform="scale(1,-1)" /></clipPath><clipPath
       clipPathUnits="userSpaceOnUse"
       id="clipPath57"><rect
         style="fill:#ffffff;stroke:#999999;stroke-width:0.817934;stroke-linecap:butt;stroke-linejoin:bevel;stroke-miterlimit:4.3;stroke-dasharray:none"
         id="rect58"
         width="189.30188"
         height="126.53175"
         x="45.554653"
         y="-55.856434"
         transform="scale(1,-1)" /></clipPath><clipPath
       clipPathUnits="userSpaceOnUse"
       id="clipPath58"><rect
         style="fill:#ffffff;stroke:#999999;stroke-width:0.817934;stroke-linecap:butt;stroke-linejoin:bevel;stroke-miterlimit:4.3;stroke-dasharray:none"
         id="rect59"
         width="189.30188"
         height="126.53175"
         x="45.554653"
         y="-55.856434"
         transform="scale(1,-1)" /></clipPath><clipPath
       clipPathUnits="userSpaceOnUse"
       id="clipPath1"><rect
         style="fill:#ffffff;stroke:#999999;stroke-width:0.797053;stroke-linejoin:bevel;stroke-miterlimit:4.3"
         id="rect2"
         width="172.1116"
         height="134.65201"
         x="31.107897"
         y="-11.514921" /></clipPath><clipPath
       clipPathUnits="userSpaceOnUse"
       id="clipPath2"><rect
         style="fill:#ffffff;stroke:#999999;stroke-width:0.797053;stroke-linejoin:bevel;stroke-miterlimit:4.3"
         id="rect3"
         width="172.1116"
         height="134.65201"
         x="43.181896"
         y="-61.603928"
         transform="scale(1,-1)" /></clipPath><clipPath
       clipPathUnits="userSpaceOnUse"
       id="clipPath3"><rect
         style="fill:#ffffff;stroke:#999999;stroke-width:0.797053;stroke-linejoin:bevel;stroke-miterlimit:4.3"
         id="rect4"
         width="172.1116"
         height="134.65201"
         x="43.181896"
         y="-61.603928"
         transform="scale(1,-1)" /></clipPath><clipPath
       clipPathUnits="userSpaceOnUse"
       id="clipPath4"><rect
         style="fill:#ffffff;stroke:#999999;stroke-width:0.797053;stroke-linejoin:bevel;stroke-miterlimit:4.3"
         id="rect5"
         width="172.1116"
         height="134.65201"
         x="43.181896"
         y="-61.603928"
         transform="scale(1,-1)" /></clipPath></defs><g
     inkscape:label="Layer 1"
     inkscape:groupmode="layer"
     id="layer1"><path
       stroke-width="0.0610422"
       stroke-linecap="round"
       stroke-linejoin="round"
       fill="none"
       stroke="#0000ff"
       d="m 70.217958,42.283739 0.369477,-1.289582 0.36948,2.244896 0.369475,1.150244 0.369478,-2.437347 0.369478,1.146057 0.369478,-2.722979 0.369477,-0.900494 0.369479,0.03302 0.369477,3.140861 0.369477,0.779874 0.369478,0.297665 0.369477,-1.488533 0.369477,0.5657 0.369478,2.06068 0.369477,-0.242328 0.369478,0.830547 0.36948,0.208595 0.369475,-2.084196 0.369477,1.63468 0.36948,-0.299364 0.369477,-3.421315 0.369478,0.03886 0.369477,0.457613 0.369477,0.301491 0.369478,0.08806 0.369479,-0.8861 0.369476,-0.140603 0.369479,-0.35915 0.369476,-1.127629 0.369478,1.388323 0.369478,-0.159415 0.369478,-1.079204 0.369476,0.378648 0.369478,1.512435 0.369479,-2.666729 0.369475,0.632135 0.36948,-0.444884 0.369475,-0.111847 0.369476,-0.05333 0.369479,-1.017 0.369481,-0.134483 0.369478,1.35187 0.369478,-0.694042 0.369477,-3.269815 0.369475,1.866622 0.369479,0.588293 0.369475,1.730719 0.369478,-0.492693 0.369477,0.743438 0.369478,0.281799 0.369483,0.880339 0.369471,1.509455 0.369484,0.111201 0.36947,-0.388858 0.369483,-0.01093 0.369471,-0.188952 0.369484,-0.159816 0.369476,-2.839566 0.369479,0.19682 0.36948,-0.638587 0.369472,-0.846348 0.369484,1.80156 0.369471,0.260711 0.369482,-2.223748 0.369472,0.529941 0.369482,-2.030426 0.369472,2.109707 0.369484,0.738019 0.369476,1.132078 0.369475,0.950465 0.36948,-0.265972 0.369477,-3.926593 0.369477,-2.719068 0.369476,0.01046 0.369483,0.442205 0.369473,-0.04375 0.369481,0.205081 0.369477,2.799356 0.369478,-0.602213 0.369479,0.01735 0.369472,0.955788 0.36948,1.300208 0.36947,0.140423 0.36948,-0.393978 0.36949,1.465856 0.36947,-0.138454 0.36949,-1.809045 0.36947,-0.356691 0.36948,0.275407 0.36947,0.420979 0.36949,1.727476 0.36949,0.87863 0.36945,1.903614 0.36947,-1.336655 0.36949,2.61828 0.36948,-0.524602 0.36947,0.03416 0.36948,1.484083 0.36947,-2.271701 0.36948,0.168886 0.36947,1.265622 0.3695,0.02318 0.36946,-1.567489 0.36949,1.521407 0.36948,0.01299 0.36947,-0.406681 0.36948,-1.191747 0.36947,0.500602 0.36947,-3.028264 0.36949,0.30332 0.36948,0.405455 0.36945,1.807988 0.3695,3.21611 0.36948,0.45569 0.36949,-0.760896 0.36947,3.075718 0.36948,0.47822 0.36946,-1.63704 0.36948,1.237821 0.36946,-1.144704 0.36949,1.217626 0.36949,0.475741 0.36946,-0.07402 0.36951,-0.51918 0.36946,-0.255053 0.36948,0.365048 0.36945,-0.775329 0.3695,-3.937607 0.36948,-1.046364 0.36947,-1.634759 0.36949,-1.952654 0.36946,1.379565 0.36949,-0.893246 0.36946,0.36658 0.36951,0.211668 0.36946,1.860746 0.36947,0.257734 0.3695,0.45154 0.36946,-2.486764 0.36949,-0.654034 0.36945,-0.261409 0.3695,0.510801 0.36948,-0.106723 0.36949,-2.292107 0.36948,-1.45573 0.36944,-0.527899 0.3695,-1.368307 0.36946,0.832966 0.36949,-1.300785 0.36949,-1.241137 0.36947,0.574613 0.36947,1.445904 0.36948,-0.128272 0.36948,-1.283453 0.36946,0.782577 0.36949,-1.645381 0.36949,-0.441769 0.36946,0.460311 0.36949,-1.380003 0.36946,2.372422 0.36949,2.807084 0.36948,-1.958236 0.36947,-0.963707 0.36949,0.523014 0.36947,-2.091101 0.36947,1.120858 0.36947,0.450605 0.3695,-0.269827 0.36947,0.854011 0.36948,1.254385 0.36947,0.285551 0.36949,-2.550006 0.36946,1.7225 0.36947,0.449925 0.36948,-2.695417 0.36949,-1.800587 0.36948,-0.839259 0.36949,0.165946 0.36947,0.446812 0.36947,-0.06838 0.36948,1.292841 0.36947,0.216335 0.36949,1.092308 0.36947,-0.418875 0.36948,-0.474628 0.36946,-0.319004 0.3695,3.007653 0.36947,1.806187 0.36947,0.02312 0.36949,1.710846 0.36948,0.947961 0.36949,0.618733 0.36945,0.66043 0.36949,1.505602 0.36948,-1.234587 0.36948,0.952911 0.36946,-1.156441 0.36949,-0.516717 0.36948,2.090146 0.36948,-0.402795"
       id="path1"
       style="stroke-width:0.368;stroke-dasharray:none" /><path
       stroke-width="0.0684214"
       stroke-linecap="round"
       stroke-linejoin="round"
       fill="none"
       stroke="#0000ff"
       d="m 143.73739,77.792746 -0.36255,0.225503 -0.36256,-0.636856 -0.36256,-0.500798 -0.36257,0.92878 -0.36255,0.921339 -0.36256,1.283474 -0.36256,0.79519 -0.36256,0.860732 -0.36256,-0.516525 -0.36257,0.67611 -0.36255,1.333237 -0.36255,-0.64027 -0.36256,0.09685 -0.36256,0.105901 -0.36257,-1.176902 -0.36256,-1.219208 -0.36256,0.811862 -0.36256,2.182971 -0.36255,-0.185559 -0.36255,0.40617 -0.36257,0.373291 -0.36256,-2.631984 -0.36256,1.169818 -0.36256,0.438511 -0.36256,0.235058 -0.36255,1.445078 -0.36257,-1.443594 -0.36256,1.197337 -0.36256,1.08468 -0.36255,0.571524 -0.36256,-0.841184 -0.36255,0.619916 -0.36257,-1.171562 -0.36256,-0.495792 -0.36256,1.598018 -0.36256,1.298854 -0.36257,-0.276356 -0.36256,-0.772614 -0.36255,-0.232926 -0.36255,-0.621022 -0.36256,-0.647873 -0.36256,-1.166161 -0.36257,0.811881 -0.36256,2.02239 -0.36256,0.233005 -0.36255,1.616999 -0.36256,-0.894789 -0.36256,-0.262467 -0.36257,-0.953183 -0.36255,-2.375235 -0.36256,-0.765441 -0.36256,-1.460821 -0.36255,0.06825 -0.36256,1.345145 -0.36257,0.451812 -0.36256,1.331883 -0.36256,0.718634 -0.36256,0.628982 -0.36257,0.447409 -0.36253,-0.468372 -0.36257,-0.111611 -0.36256,-1.329283 -0.36256,-0.284616 -0.36256,0.262786 -0.36257,0.730281 -0.36254,-1.721953 -0.36257,-1.693267 -0.36256,-0.58059 -0.36255,0.650294 -0.36256,0.127014 -0.36257,-0.190889 -0.36256,-0.02859 -0.36256,0.498052 -0.36255,-0.361135 -0.36256,0.541902 -0.36256,0.29982 -0.36257,1.939774 -0.36256,-0.649467 -0.36255,0.02132 -0.36255,-0.03677 -0.36258,-1.696177 -0.36254,-1.38183 -0.36257,-0.168642 -0.36256,-0.325407 -0.36256,0.360877 -0.36256,1.27301 -0.36255,0.449291 -0.36258,1.022948 -0.36254,0.724182 -0.36256,0.02222 -0.36256,2.115787 -0.36256,0.635349 -0.36255,-1.462763 -0.36256,-0.03717 -0.36258,-0.49905 -0.36255,-1.621829 -0.36256,9.95e-4 -0.36254,0.819016 -0.36258,-0.148923 -0.36254,-0.05918 -0.36257,1.756795 -0.36256,0.374347 -0.36255,1.308103 -0.36257,-0.590297 -0.36255,-1.284487 -0.36258,-0.377426 -0.36255,1.990229 -0.36255,0.163611 -0.36255,-0.457753 -0.36258,0.769011 -0.36255,-0.193619 -0.36257,-0.607364 -0.36255,-0.563522 -0.36257,0.37327 -0.36256,0.62179 -0.36256,1.631235 -0.36254,-1.050296 -0.36257,1.035619 -0.36256,0.630816 -0.36256,0.831439 -0.362559,-1.133202 -0.362561,-0.223221 -0.362561,-0.927905 -0.362561,0.70576 -0.362549,-1.79887 -0.362574,-0.189566 -0.362548,-0.822721 -0.362561,1.20765 -0.362562,-0.70612 -0.362561,-0.880659 -0.362561,0.35153 -0.362561,1.486448 -0.362547,0.116314 -0.362562,-0.656952 -0.362561,0.07702 -0.362561,1.222486 -0.362548,1.378691 -0.362575,-0.290344 -0.362548,-0.987976 -0.362574,-0.125937 -0.362548,-0.849931 -0.362562,0.06496 -0.362561,0.179401 -0.362561,-0.101597 -0.362548,0.07084 -0.362575,0.05171 -0.362548,-0.973081 -0.362574,-0.681281 -0.362548,0.688654 -0.362561,0.221019 -0.362549,-1.347915 -0.362574,0.877879 -0.362548,1.50211 -0.362561,0.206313 -0.362562,1.098729 -0.362547,-0.350444 -0.362575,-0.986521 -0.362547,-2.053726 -0.362576,-0.09057 -0.362547,-2.124893 -0.362561,-1.528343 -0.362548,-1.100104 -0.362574,-2.150102 -0.362549,-0.51786 -0.362574,-0.05061 -0.362548,0.0522 -0.362561,0.383647 -0.362562,0.980114 -0.362561,-1.172299 -0.362561,-0.729327 -0.362561,-1.145095 -0.362549,1.054514 -0.362561,1.586308 -0.362561,-1.890289 -0.362561,1.212692 -0.362562,0.547246 -0.362561,-0.313565 -0.362548,1.462662 -0.362574,-0.712886 -0.362548,1.579546 -0.362575,1.803971 -0.362548,-0.570765 -0.362561,0.1634 -0.362561,-1.033279 -0.362562,-0.931702 -0.362547,-0.565472 -0.362575,-0.84508 -0.362547,-0.633516 -0.362563,0.367374 -0.362561,-0.941173 -0.362561,-0.03623 -0.362547,-1.049896 -0.362576,-1.007943 -0.362547,-0.920484 -0.362575,0.594054 -0.362547,0.357616 -0.362561,0.232756 -0.362562,0.808236 -0.362561,-0.316388 -0.362548,1.32551"
       id="path1-9"
       style="stroke-width:0.368;stroke-dasharray:none" /><path
       stroke-width="0.0684284"
       stroke-linecap="round"
       stroke-linejoin="round"
       fill="none"
       stroke="#0000ff"
       d="m 71.017008,95.109713 0.368858,-1.414027 0.368858,1.874076 0.368857,0.775262 0.368857,2.583213 0.368859,2.308413 0.368856,0.9943 0.368858,1.67943 0.368858,-2.50071 0.368856,1.21487 0.368858,1.53236 0.368859,0.24449 0.368857,0.22083 0.368856,2.03426 0.368859,-0.72911 0.368857,0.44124 0.368859,0.70383 0.368856,1.83084 0.368857,-1.98884 0.368859,0.82297 0.368858,0.84382 0.368856,1.0517 0.368858,1.21213 0.368858,-0.78425 0.368857,0.0462 0.368858,-0.2926 0.368857,-0.68105 0.368859,-0.70398 0.368856,-0.48444 0.368858,-0.73259 0.368859,-0.33794 0.368855,-0.54662 0.368858,1.38326 0.368859,0.34811 0.368857,1.13843 0.368857,2.17352 0.368857,-0.46223 0.368858,-0.77677 0.368856,2.6737 0.368859,1.48768 0.368854,-2.05235 0.368862,0.59888 0.368859,0.0944 0.368855,-0.48632 0.368859,-1.69514 0.368855,-0.16216 0.368859,-2.51154 0.368856,2.16586 0.368859,-1.25613 0.368855,1.17349 0.368859,-0.55601 0.368861,-0.71643 0.368853,0.38259 0.368861,-0.0211 0.368856,-0.11507 0.368858,-0.47418 0.368855,-0.24181 0.36886,-0.67788 0.368856,0.0196 0.368857,-0.7058 0.368862,-0.33865 0.368854,0.0602 0.36886,-0.0992 0.368854,0.14497 0.368861,-1.92816 0.368855,-1.36008 0.368859,2.00884 0.368855,0.0544 0.368859,0.61791 0.36886,-0.8082 0.368854,-0.17526 0.368861,0.0939 0.368854,0.14161 0.368861,-1.00469 0.368853,-0.91046 0.36886,1.24129 0.368856,-0.41481 0.368858,0.0378 0.368861,-1.31516 0.368852,0.0958 0.36886,-0.3269 0.36886,0.90451 0.36886,1.09876 0.36885,-0.0356 0.36886,-0.18326 0.36885,0.6063 0.36887,2.94354 0.36886,0.45089 0.36885,-0.96443 0.36886,-2.39978 0.36885,0.7891 0.36886,0.51036 0.36886,-0.38357 0.36886,-0.63156 0.36885,0.16678 0.36888,1.0752 0.36883,-0.36252 0.36886,-0.12137 0.36887,-1.1823 0.36886,-0.13196 0.36886,0.55458 0.36885,0.22202 0.36886,-0.60318 0.36885,0.0212 0.36886,0.841 0.36886,0.85706 0.36886,-0.68448 0.36885,-0.27314 0.36886,-1.09006 0.36885,1.0648 0.36886,-1.46081 0.36886,-0.0178 0.36887,0.42913 0.36884,-1.68873 0.36888,-0.3402 0.36884,-1.19542 0.36886,0.97253 0.36886,0.26831 0.36885,-1.93255 0.36887,2.47876 0.36885,0.62332 0.36885,2.13985 0.36886,-0.27134 0.36886,-0.19326 0.36886,-0.50154 0.36886,-0.13348 0.36885,0.87314 0.36885,0.0589 0.36887,1.7752 0.36886,-0.69983 0.36886,-0.0411 0.36886,0.44381 0.36885,-1.34685 0.36885,2.03156 0.36886,-1.05274 0.36885,0.54895 0.36887,-0.45253 0.36885,-2.20501 0.36887,0.0149 0.36884,-1.10959 0.36886,-0.1548 0.36886,0.55762 0.36887,0.49603 0.36884,1.45408 0.36888,0.90196 0.36884,-0.1855 0.36886,-0.67094 0.36886,-2.66204 0.36885,0.93343 0.36887,-0.89937 0.36885,-0.094 0.36885,-0.80648 0.36886,1.24372 0.36886,-0.60791 0.36886,1.17608 0.36887,-1.62932 0.36884,0.12511 0.36888,-1.35635 0.36884,-0.47797 0.36887,-1.652533 0.36885,-1.717646 0.36886,-0.126219 0.36885,-1.176315 0.36886,-0.312273 0.36885,1.061552 0.36886,1.860117 0.36886,-1.903201 0.36885,-1.341958 0.36887,-0.113277 0.36885,0.199224 0.36887,1.05573 0.36885,-0.659423 0.36886,2.254827 0.36886,-0.154098 0.36886,-0.291085 0.36886,-1.229069 0.36885,1.16428 0.36885,1.077874 0.36885,0.702606 0.36887,1.127437 0.36885,-2.506167 0.36887,-0.328056 0.36884,1.164409 0.36886,-1.588244 0.36886,-0.549916 0.36887,0.53803 0.36886,2.151521 0.36886,0.270693 0.36884,-1.095221 0.36887,0.2962 0.36885,0.534801 0.36886,0.21948 0.36886,-0.11104 0.36886,-2.441858 0.36886,1.570866 0.36884,-2.404379 0.36886,-0.123636 0.36886,0.384311 0.36887,-1.640122 0.36886,-0.337748 0.36886,-0.01008"
       id="path1-7"
       style="fill:none;stroke-width:0.368;stroke-dasharray:none" /><path
       stroke-width="0.052291"
       stroke-linecap="round"
       stroke-linejoin="round"
       fill="none"
       stroke="#0000ff"
       d="m 71.339213,59.503305 0.363528,-0.32333 0.36353,0.551278 0.363528,-0.369645 0.363532,-0.81087 0.363529,-0.700558 0.363529,-0.685535 0.363529,-0.324431 0.363531,0.658292 0.36353,2.6037 0.363528,-1.74901 0.363531,0.580771 0.363529,1.905785 0.363532,-0.298529 0.363529,-1.61147 0.363529,-0.626231 0.363529,-0.548852 0.363529,2.199288 0.363531,-0.274832 0.363529,1.871646 0.363531,1.645219 0.363528,0.818455 0.363532,-1.062038 0.36353,0.488385 0.363527,-0.758423 0.363529,-0.15185 0.363532,1.146171 0.363528,0.0011 0.363531,-1.105899 0.363528,1.114399 0.363531,0.843981 0.363531,0.122422 0.363529,-0.61612 0.363528,-0.676396 0.36353,-0.318769 0.363531,1.36709 0.363529,-0.484214 0.363527,0.268874 0.363531,-0.368335 0.363532,-1.371044 0.363526,1.133766 0.363536,1.95835 0.363525,-1.475253 0.363533,0.667347 0.363528,1.341199 0.36353,-0.273717 0.363527,0.08643 0.363531,-0.460288 0.363532,0.548461 0.363526,-1.151036 0.363531,0.655342 0.363527,0.02419 0.363535,0.706356 0.363528,0.31359 0.363531,-0.287571 0.363526,0.222167 0.363531,-0.594152 0.363533,1.576225 0.363527,0.344658 0.363532,-1.301812 0.363526,0.179234 0.363532,0.648561 0.363526,-0.489795 0.363537,-0.344061 0.363526,-1.176538 0.363531,0.676413 0.363531,-1.038065 0.363528,-0.322616 0.363531,1.074576 0.363527,1.188637 0.36353,-1.280879 0.363526,-0.784108 0.363532,1.278045 0.363526,-2.417433 0.363537,-1.211432 0.363531,0.484288 0.363528,0.673752 0.363532,0.369573 0.363526,-0.44005 0.363532,-1.173238 0.36353,-1.151256 0.36353,-0.423007 0.36352,0.677283 0.36353,-0.278131 0.36353,1.561303 0.36353,0.0891 0.36353,1.404559 0.36353,0.571705 0.36354,-0.03195 0.36353,1.559996 0.36352,-0.846449 0.36353,-2.487111 0.36353,-0.310472 0.36353,-1.50322 0.36352,1.695009 0.36354,-0.08925 0.36354,0.24736 0.36352,-0.106478 0.36354,-0.270286 0.36351,0.913994 0.36354,0.09706 0.36353,-1.007192 0.36351,-1.340169 0.36354,1.103602 0.36352,1.138183 0.36355,-1.116316 0.36354,-0.916535 0.36351,0.405385 0.36354,0.201652 0.36351,0.528149 0.36355,0.08353 0.36351,-0.547735 0.36353,1.083336 0.36357,0.0019 0.3635,0.702983 0.36354,1.104912 0.36351,-1.299418 0.36353,0.273105 0.36355,0.304819 0.36351,-0.856038 0.36352,0.267058 0.36357,1.834497 0.36351,0.117786 0.36354,1.613431 0.36352,0.298005 0.36351,0.243149 0.36355,0.924394 0.36351,1.329228 0.36353,0.45038 0.36355,-0.622265 0.36354,0.69931 0.36353,-0.02305 0.36351,-0.592355 0.36355,-1.2721 0.3635,0.952872 0.36354,-0.755112 0.36353,0.495416 0.36354,-0.901036 0.36354,-1.046548 0.36351,-0.651554 0.36353,0.301959 0.36355,-0.01278 0.36349,-1.149615 0.36354,1.238862 0.36354,-0.400255 0.36353,-0.192706 0.36355,0.264564 0.36351,0.372214 0.36352,-1.138833 0.36354,0.498947 0.36352,-0.02815 0.36352,0.306098 0.36354,-0.206623 0.36353,-0.186949 0.36354,-0.848284 0.36353,-2.12733 0.36353,-1.062718 0.36352,0.811828 0.36354,-1.006016 0.36352,-0.208437 0.36352,-1.595984 0.36355,0.585217 0.36353,-0.652527 0.36353,-0.525492 0.36353,-0.969564 0.36353,-0.654416 0.36352,-0.500327 0.36354,0.324229 0.36351,-1.159682 0.36353,0.646265 0.36356,0.287153 0.36351,0.977498 0.36354,-0.773142 0.36352,0.585407 0.36351,-0.146229 0.36355,0.205024 0.36352,0.516788 0.36353,1.595549 0.36355,1.403861 0.36352,1.060745 0.36353,1.584867 0.36354,-0.798579 0.36352,-0.68106 0.36352,-0.90968 0.36353,0.09747 0.36353,-0.260101 0.36355,-0.09625 0.36352,-1.548999 0.36354,-0.908531 0.36352,0.198413 0.36354,-0.514157 0.36352,0.26151 0.36351,-0.897083 0.36355,0.851565 0.36353,1.798874 0.36354,-0.834422 0.36352,-0.619388 0.36351,-1.661085 0.36355,0.37999 0.36354,0.741642 0.36349,-0.03021"
       id="path1-0"
       style="stroke-width:0.368;stroke-dasharray:none" /><g
       id="g2"
       transform="matrix(0.72642723,0,0,0.72642723,23.735745,32.634611)"><path
         transform="matrix(1,0,0,-1,-12.074,50.089006)"
         stroke-width="0.3985"
         stroke-linecap="butt"
         stroke-dasharray="2.98883, 2.98883"
         stroke-miterlimit="10"
         stroke-linejoin="miter"
         fill="none"
         stroke="#ff0000"
         d="M 76.53586,-51.0239 V 51.0239"
         id="path1-6" /><path
         transform="matrix(1,0,0,-1,-12.074,50.089006)"
         stroke-width="0.3985"
         stroke-linecap="butt"
         stroke-dasharray="2.98883, 2.98883"
         stroke-miterlimit="10"
         stroke-linejoin="miter"
         fill="none"
         stroke="#ff0000"
         d="M 178.58368,-51.0239 V 51.0239"
         id="path2" /><path
         transform="matrix(1,0,0,-1,-12.074,50.089006)"
         stroke-width="0.79701"
         stroke-linecap="butt"
         stroke-miterlimit="10"
         stroke-linejoin="miter"
         fill="none"
         stroke="#000000"
         d="m 25.51193,-51.97101 0.01653,-1.79609 4.19761,-1.92408 0.13584,0.90186 1.32119,-1.45493 2.99865,0.86019 1.86895,1.2518 2.3881,-1.51143 1.64973,-2.24813 2.28209,-0.45231 1.08435,2.71213 1.09691,1.46963 1.52885,3.41574 0.88152,-1.54338 1.80321,0.38794 1.59874,4.95827 1.16548,-2.81978 3.89587,4.44194 -0.76065,-0.45767 3.3107,2.08594 -0.32776,0.0041 0.98584,1.26805 2.25826,-0.07251 2.14916,2.02954 1.55051,-1.37373 3.16071,3.80638 1.493,-1.26916 3.51527,-0.4237 1.34761,0.13689 0.22847,0.68063 3.00064,1.61324 1.34891,0.01286 3.78067,1.15314 1.35705,-0.68068 3.65446,0.4716 -1.00693,-0.27806 3.24188,1.10559 1.55775,-0.8076 2.49643,1.26747 -0.04425,1.0425 4.78868,0.10115 -0.11033,1.21822 2.67886,1.23815 0.41283,-1.37225 2.9333,-0.89043 2.20377,3.17527 0.49417,-1.42186 2.4283,0.27891 3.42772,1.06005 3.47062,-0.46981 0.87392,-1.50712 -0.68289,-1.49523 5.57156,0.63507 1.44428,-2.14993 -2.08478,-0.46789 4.84939,-2.32278 1.13502,1.26649 0.61134,0.33076 1.89326,0.92783 4.21294,1.56252 1.27066,-1.21336 0.62322,1.33436 2.76512,1.49638 3.60498,-1.27258 -0.40303,0.29249 1.83597,-0.72948 3.8916,0.75776 0.18037,0.86454 0.18028,-0.46197 3.12384,-2.47604 4.23737,1.17068 1.12964,-0.86131 1.40333,0.4853 3.24213,-0.66369 1.36293,0.57888 3.06639,-1.84259 2.06803,3.26001 0.99998,-0.76398 2.43524,-1.2136 2.82224,0.41168 1.19187,-0.04681 1.27695,-4.28548 1.07344,3.3208 1.96868,-2.25816 4.40645,-1.95888 1.20065,-1.80698 0.63751,1.57723 1.02557,-0.44751 1.29735,-0.58702 5.00171,-0.19104 0.14281,0.40231 2.35911,-3.51738 1.82017,3.40894 1.67478,-2.34609 1.25652,-0.19145 1.92584,-0.32213 0.0538,0.93506 2.44176,0.53352 3.97677,0.56067 3.00468,-0.64074 -0.43253,-1.54232 3.60829,1.69413 1.99907,0.1743 1.28834,-3.83165 -1.53105,-1.30866 3.33585,-3.06178 1.15152,0.98056 -0.59348,-3.65167 2.53708,-1.32412 -1.88794,-2.2013 1.38033,-0.59246 2.74105,-3.31033 -0.7593,-1.10002 2.67382,-1.98082 -0.45705,-2.80165 2.6977,-0.81128"
         id="path3"
         style="stroke-linejoin:bevel"
         clip-path="url(#clipPath4)" /><path
         transform="matrix(1,0,0,-1,-12.074,50.089006)"
         d="m 78.32915,-38.26791 c 0,0.9904 -0.80289,1.79329 -1.79329,1.79329 -0.9904,0 -1.79329,-0.80289 -1.79329,-1.79329 0,-0.99042 0.80289,-1.79329 1.79329,-1.79329 0.9904,0 1.79329,0.80287 1.79329,1.79329 z m -1.79329,0"
         id="path4" /><path
         transform="matrix(1,0,0,-1,-12.074,50.089006)"
         stroke-width="0.3985"
         stroke-linecap="butt"
         stroke-miterlimit="10"
         stroke-linejoin="miter"
         fill="none"
         stroke="#000000"
         d="m 78.32915,-38.26791 c 0,0.9904 -0.80289,1.79329 -1.79329,1.79329 -0.9904,0 -1.79329,-0.80289 -1.79329,-1.79329 0,-0.99042 0.80289,-1.79329 1.79329,-1.79329 0.9904,0 1.79329,0.80287 1.79329,1.79329 z m -1.79329,0"
         id="path5" /><path
         transform="matrix(1,0,0,-1,-12.074,50.089006)"
         d="m 180.37697,-38.26791 c 0,0.9904 -0.80287,1.79329 -1.79329,1.79329 -0.9904,0 -1.79329,-0.80289 -1.79329,-1.79329 0,-0.99042 0.80289,-1.79329 1.79329,-1.79329 0.99042,0 1.79329,0.80287 1.79329,1.79329 z m -1.79329,0"
         id="path6" /><path
         transform="matrix(1,0,0,-1,-12.074,50.089006)"
         stroke-width="0.3985"
         stroke-linecap="butt"
         stroke-miterlimit="10"
         stroke-linejoin="miter"
         fill="none"
         stroke="#000000"
         d="m 180.37697,-38.26791 c 0,0.9904 -0.80287,1.79329 -1.79329,1.79329 -0.9904,0 -1.79329,-0.80289 -1.79329,-1.79329 0,-0.99042 0.80289,-1.79329 1.79329,-1.79329 0.99042,0 1.79329,0.80287 1.79329,1.79329 z m -1.79329,0"
         id="path7" /><path
         transform="matrix(1,0,0,-1,-12.074,50.089006)"
         stroke-width="0.79701"
         stroke-linecap="butt"
         stroke-miterlimit="10"
         stroke-linejoin="miter"
         fill="none"
         stroke="#000000"
         d="m 25.51193,-25.12576 1.71685,0.45691 3.10966,-1.33338 1.99048,-1.27936 2.43352,1.64501 2.24486,-0.1429 1.98376,-1.40109 1.09776,-1.13338 2.94405,1.04285 0.59933,-0.34705 2.51572,0.1046 2.33749,2.37093 0.08081,2.53488 2.89812,-1.54451 0.15704,0.47899 3.04532,2.05287 0.33719,0.32986 0.99057,2.47815 3.74843,-0.84047 2.12476,0.91541 3.95065,1.60721 -0.98615,-0.27292 3.31641,3.30629 1.09582,0.36076 3.12194,-0.24858 -0.58559,-1.2072 3.14598,3.22641 2.54231,-0.19698 2.68956,1.12405 1.19097,-3.75733 2.47441,2.16632 3.63333,1.27904 0.53767,-2.07372 1.5551,1.89015 1.12407,0.4134 2.446,-2.322 2.81211,0.27344 2.46998,1.8916 1.48697,0.80269 1.28701,1.51769 1.80445,1.47392 2.37299,-1.30537 2.29078,2.94702 -0.19418,-0.49463 4.62959,1.7372 0.89971,-1.01822 2.70669,1.24754 2.97029,-1.26031 0.0788,0.06732 1.19564,-3.87961 2.20929,1.77319 2.47947,-2.12684 1.1157,-1.47516 1.82266,1.21797 3.17199,0.26584 1.75282,2.25966 -0.39868,-1.64273 3.45628,0.48873 0.44059,2.89338 3.46063,-0.87078 1.31592,0.1787 1.37887,1.73364 2.17325,-0.7157 3.38252,-0.49604 0.5579,0.57446 3.61914,-1.31249 -0.16629,1.04316 4.04744,-2.00811 0.96466,1.40802 1.47227,-1.9877 1.55811,1.57271 1.70546,-1.04247 2.30012,-0.48693 0.30707,-1.24349 3.94769,-3.53981 2.95482,1.82367 0.33162,-1.55456 1.33243,-0.88358 1.64372,0.59843 2.36595,-0.28723 3.6045,-0.47593 2.33517,1.64187 0.11964,-2.62652 3.17783,0.36918 1.23057,0.19716 4.55967,-1.95024 -0.97815,-0.88477 0.76773,-0.79531 3.42067,0.24583 2.60623,-2.61183 0.0525,-0.15392 2.91745,-2.29379 1.54684,-0.51019 -0.17731,-1.63906 5.65334,0.04981 -0.47308,-2.35335 2.54869,1.62163 0.20083,-1.31825 2.84585,-1.38388 2.43363,-0.2251 2.65827,-0.41149 2.28114,-1.46788 -0.79049,-0.92767 3.15527,0.88792 2.52083,-1.50631 1.19562,-1.84433 3.18624,0.63106 0.37105,-2.34732"
         id="path8"
         style="stroke-linejoin:bevel"
         clip-path="url(#clipPath3)" /><path
         transform="matrix(1,0,0,-1,-12.074,50.089006)"
         d="m 78.32915,-12.75595 c 0,0.9904 -0.80289,1.79327 -1.79329,1.79327 -0.9904,0 -1.79329,-0.80287 -1.79329,-1.79327 0,-0.99042 0.80289,-1.79329 1.79329,-1.79329 0.9904,0 1.79329,0.80287 1.79329,1.79329 z m -1.79329,0"
         id="path9" /><path
         transform="matrix(1,0,0,-1,-12.074,50.089006)"
         stroke-width="0.3985"
         stroke-linecap="butt"
         stroke-miterlimit="10"
         stroke-linejoin="miter"
         fill="none"
         stroke="#000000"
         d="m 78.32915,-12.75595 c 0,0.9904 -0.80289,1.79327 -1.79329,1.79327 -0.9904,0 -1.79329,-0.80287 -1.79329,-1.79327 0,-0.99042 0.80289,-1.79329 1.79329,-1.79329 0.9904,0 1.79329,0.80287 1.79329,1.79329 z m -1.79329,0"
         id="path10" /><path
         transform="matrix(1,0,0,-1,-12.074,50.089006)"
         d="m 180.37697,-12.75595 c 0,0.9904 -0.80287,1.79327 -1.79329,1.79327 -0.9904,0 -1.79329,-0.80287 -1.79329,-1.79327 0,-0.99042 0.80289,-1.79329 1.79329,-1.79329 0.99042,0 1.79329,0.80287 1.79329,1.79329 z m -1.79329,0"
         id="path11" /><path
         transform="matrix(1,0,0,-1,-12.074,50.089006)"
         stroke-width="0.3985"
         stroke-linecap="butt"
         stroke-miterlimit="10"
         stroke-linejoin="miter"
         fill="none"
         stroke="#000000"
         d="m 180.37697,-12.75595 c 0,0.9904 -0.80287,1.79327 -1.79329,1.79327 -0.9904,0 -1.79329,-0.80287 -1.79329,-1.79327 0,-0.99042 0.80289,-1.79329 1.79329,-1.79329 0.99042,0 1.79329,0.80287 1.79329,1.79329 z m -1.79329,0"
         id="path12" /><path
         transform="matrix(1,0,0,-1,-12.074,50.089006)"
         stroke-width="0.79701"
         stroke-linecap="butt"
         stroke-miterlimit="10"
         stroke-linejoin="miter"
         fill="none"
         stroke="#000000"
         d="m 25.51193,-9.95468 2.94855,0.70174 -0.68053,3.93266 0.57082,0.70958 2.20724,-0.78467 0.90412,4.71796 -0.26403,-0.62941 2.59054,3.42817 0.6712,2.20005 0.80728,-1.17833 1.32602,1.40329 2.73916,0.09124 0.7538,4.18877 2.23371,-0.52103 3.53346,0.80761 1.37015,0.99543 0.0294,-3.33228 3.66906,2.57961 0.37756,-0.06791 3.36842,-1.17096 2.97812,-1.09125 0.54117,2.11185 3.68834,0.50845 0.57641,0.96083 3.2958,0.77725 0.79742,-2.62991 2.7002,2.56473 2.68168,1.23072 0.81032,-2.27767 2.27443,1.75074 3.34167,-0.57454 1.63878,1.08023 1.42288,0.66671 2.40874,0.91339 3.1098,1.912 2.62961,-2.46924 0.4177,-0.43661 1.27514,0.51638 1.09647,2.06156 4.68283,1.45199 1.36673,-1.8336 3.49744,1.02245 -0.39804,0.30527 2.22747,1.1603 2.74688,1.24544 2.95114,-2.3421 1.06641,3.17309 -0.21935,-0.20976 2.7059,0.08902 3.26602,-2.79533 1.17108,1.85364 0.64105,-1.10834 1.27474,2.18404 2.34244,-2.91955 4.30029,-1.16891 -0.0987,-0.46915 1.68112,0.25782 2.52247,-1.67394 3.15277,1.05649 0.46322,0.1842 2.1962,-0.95613 -0.38522,-1.26005 4.47162,-0.34928 2.15754,1.03762 2.73328,1.00427 1.36907,-1.04076 3.0431,0.57741 0.6846,-0.85985 3.9684,0.98034 1.01926,0.53426 1.76063,1.29906 0.75254,-0.28367 1.61782,-1.80367 4.73619,0.62395 -0.60092,1.08401 2.16043,-1.51227 4.55002,0.80669 1.36246,-0.47682 1.16511,1.71867 4.43444,-3.07413 -1.52689,-1.13925 3.90601,2.23011 0.10854,-0.95232 3.95326,-0.93715 2.53729,-0.72775 2.1925,-1.76929 3.45652,0.10632 2.10467,-0.22322 1.29074,-1.90071 1.68317,-0.97571 -0.002,1.55341 2.22043,-1.41946 1.63159,-2.29671 1.68219,-2.34798 3.83467,0.70983 -1.2646,-1.31032 4.58536,-0.68173 2.07673,-0.42231 -0.8013,-0.12694 2.89466,-2.96234 1.57052,-0.00903 3.54381,-1.22958 -1.35529,-0.83339 4.31084,-0.58112 0.7551,-1.25142 -0.84407,-1.18651 2.65172,-1.02247 0.2323,-3.49329 5.93569,0.29831 -0.65307,-1.92392"
         id="path13"
         style="stroke-linejoin:bevel"
         clip-path="url(#clipPath2)" /><path
         transform="matrix(1,0,0,-1,-12.074,50.089006)"
         d="m 78.32915,12.75595 c 0,0.99042 -0.80289,1.79329 -1.79329,1.79329 -0.9904,0 -1.79329,-0.80287 -1.79329,-1.79329 0,-0.9904 0.80289,-1.79327 1.79329,-1.79327 0.9904,0 1.79329,0.80287 1.79329,1.79327 z m -1.79329,0"
         id="path14" /><path
         transform="matrix(1,0,0,-1,-12.074,50.089006)"
         stroke-width="0.3985"
         stroke-linecap="butt"
         stroke-miterlimit="10"
         stroke-linejoin="miter"
         fill="none"
         stroke="#000000"
         d="m 78.32915,12.75595 c 0,0.99042 -0.80289,1.79329 -1.79329,1.79329 -0.9904,0 -1.79329,-0.80287 -1.79329,-1.79329 0,-0.9904 0.80289,-1.79327 1.79329,-1.79327 0.9904,0 1.79329,0.80287 1.79329,1.79327 z m -1.79329,0"
         id="path15" /><path
         transform="matrix(1,0,0,-1,-12.074,50.089006)"
         d="m 180.37697,12.75595 c 0,0.99042 -0.80287,1.79329 -1.79329,1.79329 -0.9904,0 -1.79329,-0.80287 -1.79329,-1.79329 0,-0.9904 0.80289,-1.79327 1.79329,-1.79327 0.99042,0 1.79329,0.80287 1.79329,1.79327 z m -1.79329,0"
         id="path16" /><path
         transform="matrix(1,0,0,-1,-12.074,50.089006)"
         stroke-width="0.3985"
         stroke-linecap="butt"
         stroke-miterlimit="10"
         stroke-linejoin="miter"
         fill="none"
         stroke="#000000"
         d="m 180.37697,12.75595 c 0,0.99042 -0.80287,1.79329 -1.79329,1.79329 -0.9904,0 -1.79329,-0.80287 -1.79329,-1.79329 0,-0.9904 0.80289,-1.79327 1.79329,-1.79327 0.99042,0 1.79329,0.80287 1.79329,1.79327 z m -1.79329,0"
         id="path17" /><path
         stroke-width="0.79701"
         stroke-linecap="butt"
         stroke-miterlimit="10"
         stroke-linejoin="miter"
         fill="none"
         stroke="#000000"
         d="m 13.438174,42.097725 3.08955,-2.288759 -1.132318,-2.542821 1.872394,2.869393 1.384206,-1.979907 3.896555,-3.211833 -0.383793,0.338601 -0.535161,-1.941858 3.442782,-4.279774 1.110264,0.242043 0.898096,-4.07971 0.981441,1.168489 3.905575,-0.164826 -1.089476,-0.879636 2.569166,-3.743279 2.482522,1.10617 1.486372,-3.096066 0.898849,2.529181 3.411529,-0.820227 0.962077,-2.759936 0.601971,-0.997983 4.656036,-1.670965 0.04631,-0.412429 2.510172,0.656943 1.014921,-2.506963 1.748214,0.191615 3.64256,0.830068 0.406749,-1.648436 1.653211,0.358001 0.64388,-1.219638 4.718892,-2.5176216 -0.02873,2.2934586 4.737614,-0.38259 1.588127,-0.127667 1.273251,-0.545445 0.04033,-1.5705476 -0.198604,-1.2277868 2.466509,-0.085668 3.66404,1.6900044 0.258952,-1.9941962 4.594403,0.9173552 2.277486,-4.0789798 -0.105918,1.9862563 1.669324,-0.702251 4.131981,-0.3201414 1.42198,0.3241313 -1.172369,3.5203349 2.911714,-0.2065044 1.163259,-0.8294676 3.567222,0.4644375 -0.270701,2.3525872 2.87326,-0.39668 1.64667,-0.225624 0.7059,-0.9132853 4.0345,-2.370236 -0.88635,-0.7549996 2.84814,-0.1721154 1.68744,-1.4968795 3.85866,0.3017918 0.73102,-2.2988879 1.95899,0.9688638 3.08562,-0.4288084 2.25344,2.5485512 0.51637,0.2389235 1.56919,2.5677007 2.58577,-1.4523408 2.49879,0.8291976 0.1586,1.5081993 2.43097,0.611304 -0.62097,-1.9544377 3.25526,0.6245731 2.06605,-2.3252072 1.08621,0.2409135 3.7413,0.1223467 2.95623,-1.0442418 -0.28866,-0.8681066 1.68764,1.4840399 0.86527,-1.3782727 3.92206,4.3194533 2.83886,-2.2183001 0.79369,0.8377374 0.58661,0.4701473 2.51406,1.1245496 1.41768,1.6176263 2.7235,1.607047 1.20301,0.3695 2.2099,-2.745036 1.64792,1.152379 2.3628,0.170295 0.0339,-1.519609 4.44684,1.741733 2.58307,2.776125 1.83537,-1.638815 1.1583,2.149002 0.97924,1.352033 3.32501,2.052925 -1.33805,0.0058 5.35563,0.72813 0.72571,0.466067 1.38682,0.440228 2.06627,-0.150975 3.75626,-1.810822 0.55117,-1.515999 0.58468,1.579258 5.33491,0.825027 0.94769,-2.003605 0.47586,0.980133 2.43414,2.193421 0.65129,0.01437 1.01058,4.531768 3.09602,1.277116 0.18576,1.816931 2.78822,0.04714 0.246,2.029245 0.73574,-0.08764 2.06215,3.164734 0.31298,0.01222 0.61878,2.325637"
         id="path18"
         style="stroke-width:0.798356;stroke-linecap:butt;stroke-linejoin:bevel;stroke-dasharray:none"
         clip-path="url(#clipPath1)" /><path
         transform="matrix(1,0,0,-1,-12.074,50.089006)"
         d="m 78.32915,38.26791 c 0,0.99042 -0.80289,1.79329 -1.79329,1.79329 -0.9904,0 -1.79329,-0.80287 -1.79329,-1.79329 0,-0.9904 0.80289,-1.79329 1.79329,-1.79329 0.9904,0 1.79329,0.80289 1.79329,1.79329 z m -1.79329,0"
         id="path19" /><path
         transform="matrix(1,0,0,-1,-12.074,50.089006)"
         stroke-width="0.3985"
         stroke-linecap="butt"
         stroke-miterlimit="10"
         stroke-linejoin="miter"
         fill="none"
         stroke="#000000"
         d="m 78.32915,38.26791 c 0,0.99042 -0.80289,1.79329 -1.79329,1.79329 -0.9904,0 -1.79329,-0.80287 -1.79329,-1.79329 0,-0.9904 0.80289,-1.79329 1.79329,-1.79329 0.9904,0 1.79329,0.80289 1.79329,1.79329 z m -1.79329,0"
         id="path20" /><path
         transform="matrix(1,0,0,-1,-12.074,50.089006)"
         d="m 180.37697,38.26791 c 0,0.99042 -0.80287,1.79329 -1.79329,1.79329 -0.9904,0 -1.79329,-0.80287 -1.79329,-1.79329 0,-0.9904 0.80289,-1.79329 1.79329,-1.79329 0.99042,0 1.79329,0.80289 1.79329,1.79329 z m -1.79329,0"
         id="path21" /><path
         transform="matrix(1,0,0,-1,-12.074,50.089006)"
         stroke-width="0.3985"
         stroke-linecap="butt"
         stroke-miterlimit="10"
         stroke-linejoin="miter"
         fill="none"
         stroke="#000000"
         d="m 180.37697,38.26791 c 0,0.99042 -0.80287,1.79329 -1.79329,1.79329 -0.9904,0 -1.79329,-0.80287 -1.79329,-1.79329 0,-0.9904 0.80289,-1.79329 1.79329,-1.79329 0.99042,0 1.79329,0.80289 1.79329,1.79329 z m -1.79329,0"
         id="path22" /></g></g></svg>
