<?xml version="1.0" encoding="UTF-8" standalone="no"?>
<!-- Created with Inkscape (http://www.inkscape.org/) -->

<svg
   width="210mm"
   height="297mm"
   viewBox="0 0 210 297"
   version="1.1"
   id="svg1"
   sodipodi:docname="LCS convex top 2.svg"
   inkscape:version="1.3.2 (091e20e, 2023-11-25)"
   xmlns:inkscape="http://www.inkscape.org/namespaces/inkscape"
   xmlns:sodipodi="http://sodipodi.sourceforge.net/DTD/sodipodi-0.dtd"
   xmlns:xlink="http://www.w3.org/1999/xlink"
   xmlns="http://www.w3.org/2000/svg"
   xmlns:svg="http://www.w3.org/2000/svg">
  <sodipodi:namedview
     id="namedview1"
     pagecolor="#ffffff"
     bordercolor="#666666"
     borderopacity="1.0"
     inkscape:showpageshadow="2"
     inkscape:pageopacity="0.0"
     inkscape:pagecheckerboard="0"
     inkscape:deskcolor="#d1d1d1"
     inkscape:document-units="mm"
     inkscape:zoom="1.376572"
     inkscape:cx="362.49467"
     inkscape:cy="406.44442"
     inkscape:window-width="1440"
     inkscape:window-height="872"
     inkscape:window-x="0"
     inkscape:window-y="28"
     inkscape:window-maximized="0"
     inkscape:current-layer="layer1" />
  <defs
     id="defs1">
    <pattern
       inkscape:collect="always"
       xlink:href="#Wavy"
       id="pattern71"
       patternTransform="scale(1)" />
    <pattern
       inkscape:collect="always"
       patternUnits="userSpaceOnUse"
       width="30.066020"
       height="5.1805778"
       id="Wavy"
       inkscape:stockid="Wavy"
       inkscape:isstock="true"
       inkscape:label="Wavy">
      <path
   style="stroke:none;"
   d="M 7.597,0.061 C 5.079,-0.187 2.656,0.302 -0.01,1.788 L -0.01,3.061 C 2.773,1.431 5.173,1.052 7.472,1.280 C 9.770,1.508 11.969,2.361 14.253,3.218 C 18.820,4.931 23.804,6.676 30.066,3.061 L 30.062,1.788 C 23.622,5.497 19.246,3.770 14.691,2.061 C 12.413,1.207 10.115,0.311 7.597,0.061 z "
   id="path786" />

    </pattern>
    <clipPath
       clipPathUnits="userSpaceOnUse"
       id="clipPath25">
      <rect
         style="fill:#ff0000;stroke:none;stroke-width:3;stroke-linecap:square;stroke-linejoin:miter;paint-order:stroke markers fill;stop-color:#000000"
         id="rect25-8"
         width="78"
         height="45.033199"
         x="763.61322"
         y="452.82422" />
    </clipPath>
    <inkscape:path-effect
       effect="bspline"
       id="path-effect297"
       is_visible="true"
       lpeversion="1.3"
       weight="33.333333"
       steps="2"
       helper_size="0"
       apply_no_weight="true"
       apply_with_weight="true"
       only_selected="false"
       uniform="false" />
  </defs>
  <g
     inkscape:label="Layer 1"
     inkscape:groupmode="layer"
     id="layer1">
    <path
       style="fill:none;stroke:#000000;stroke-width:0.5;stroke-linejoin:bevel;stroke-miterlimit:4.3;stroke-dasharray:none"
       id="path1"
       sodipodi:type="arc"
       sodipodi:cx="147.79819"
       sodipodi:cy="-20.291431"
       sodipodi:rx="40.426407"
       sodipodi:ry="60.231266"
       sodipodi:start="0"
       sodipodi:end="6.2542963"
       sodipodi:open="true"
       sodipodi:arc-type="arc"
       d="M 188.22459,-20.291431 A 40.426407,60.231266 0 0 1 148.09015,39.938264 40.426407,60.231266 0 0 1 107.376,-19.421451 40.426407,60.231266 0 0 1 146.92235,-80.50856 40.426407,60.231266 0 0 1 188.20773,-22.031211"
       transform="rotate(51.975822)" />
    <path
       style="fill:#000000;stroke:#000000;stroke-width:0.460631;stroke-linecap:butt;stroke-linejoin:miter;stroke-dasharray:none;stroke-opacity:1"
       d="M 60.981646,51.190363 107.91226,177.05264"
       id="path2-2" />
    <path
       style="fill:none;stroke:#000000;stroke-width:0.447456;stroke-linecap:butt;stroke-linejoin:miter;stroke-dasharray:2.68474, 2.68474;stroke-dashoffset:0;stroke-opacity:1"
       d="M 24.406301,52.567419 C 47.024594,52.92502 69.642889,53.282621 86.629073,63.921476 103.61526,74.56033 114.96888,95.479598 126.32272,116.39928"
       id="path296"
       inkscape:path-effect="#path-effect297"
       inkscape:original-d="m 24.406301,52.567419 c 22.618293,0.3576 45.236588,0.715203 67.854882,1.072803 11.354077,20.920107 22.707697,41.839374 34.061537,62.759058"
       transform="matrix(1.0504793,0.39528548,-0.39528548,1.0504793,46.552289,-4.8603017)" />
    <path
       style="fill:none;stroke:none;stroke-width:0.499999;stroke-linejoin:bevel;stroke-miterlimit:4.3;stroke-dasharray:none;stroke-dashoffset:0;stroke-opacity:1"
       id="path341"
       sodipodi:type="arc"
       sodipodi:cx="49.018288"
       sodipodi:cy="102.32402"
       sodipodi:rx="1.4510192"
       sodipodi:ry="1.4510192"
       sodipodi:start="0"
       sodipodi:end="6.2542963"
       sodipodi:open="true"
       sodipodi:arc-type="arc"
       d="m 50.469307,102.32402 a 1.4510192,1.4510192 0 0 1 -1.44054,1.45098 1.4510192,1.4510192 0 0 1 -1.461347,-1.43002 1.4510192,1.4510192 0 0 1 1.419431,-1.47164 1.4510192,1.4510192 0 0 1 1.48185,1.40877" />
    <path
       style="fill:#000000;stroke:none;stroke-width:0.499999;stroke-linejoin:bevel;stroke-miterlimit:4.3;stroke-dasharray:none;stroke-dashoffset:0;stroke-opacity:1"
       id="path342"
       sodipodi:type="arc"
       sodipodi:cx="76.345261"
       sodipodi:cy="151.41817"
       sodipodi:rx="0.72550958"
       sodipodi:ry="0.72550958"
       sodipodi:start="0"
       sodipodi:end="6.2542963"
       sodipodi:open="true"
       sodipodi:arc-type="arc"
       d="m 77.07077,151.41817 a 0.72550958,0.72550958 0 0 1 -0.72027,0.72549 0.72550958,0.72550958 0 0 1 -0.730673,-0.71501 0.72550958,0.72550958 0 0 1 0.709715,-0.73582 0.72550958,0.72550958 0 0 1 0.740925,0.70438" />
    <g
       data-mml-node="msub"
       id="g4"
       transform="matrix(0.00478905,0,0,-0.00478905,69.271543,154.74256)"
       style="fill:#000000;stroke:#000000;stroke-width:0">
      <g
         data-mml-node="mi"
         id="g2">
        <path
           id="use1"
           d="m 52,289 q 7,42 54,97 47,55 116,56 35,0 64,-18 29,-18 43,-45 42,63 101,63 37,0 64,-22 27,-22 28,-59 0,-29 -14,-47 -14,-18 -27,-22 -13,-4 -23,-4 -19,0 -31,11 -12,11 -12,29 0,46 50,63 -11,13 -40,13 -13,0 -19,-2 -38,-16 -56,-66 -60,-221 -60,-258 0,-28 16,-40 16,-12 35,-12 37,0 73,33 36,33 49,81 3,10 6,11 3,1 16,2 h 4 q 15,0 15,-8 0,-1 -2,-11 Q 486,77 440,33 394,-11 333,-11 263,-11 227,52 186,-10 133,-10 h -6 q -49,0 -70,26 -21,26 -22,55 0,32 19,52 19,20 45,20 43,0 43,-42 Q 142,81 130,66 118,51 107,46 96,41 94,41 l -3,-1 q 0,-1 6,-4 6,-3 16,-7 10,-4 19,-3 36,0 62,45 9,16 23,68 14,52 28,108 14,56 16,66 5,27 5,39 0,28 -15,40 -15,12 -34,12 -40,0 -75,-32 -35,-32 -49,-82 -2,-9 -5,-10 -3,-1 -16,-2 H 58 q -6,6 -6,11 z" />
      </g>
      <g
         data-mml-node="mn"
         transform="matrix(0.707,0,0,0.707,605,-150)"
         id="g3">
        <path
           id="use2"
           d="m 96,585 q 56,81 153,81 48,0 96,-26 48,-26 78,-92 37,-83 37,-228 0,-155 -43,-237 -20,-42 -55,-67 -35,-25 -61,-31 -26,-6 -51,-7 -26,0 -52,6 -26,6 -61,32 -35,26 -55,67 -43,82 -43,237 0,174 57,265 z m 225,12 q -30,32 -71,32 -42,0 -72,-32 -25,-26 -33,-72 -8,-46 -8,-192 0,-158 8,-208 8,-50 36,-79 28,-30 69,-30 40,0 68,30 29,30 36,84 7,54 8,203 0,145 -8,191 -8,46 -33,73 z" />
      </g>
    </g>
    <path
       id="use1-7"
       d="m 113.20726,89.146042 q 0,-0.06705 0.10536,-0.153252 0.10536,-0.0862 0.25382,-0.0862 0.91473,0 0.91473,1.805506 0,0.201144 -0.0144,0.44539 -0.0144,0.244246 -0.0287,0.387921 l -0.0144,0.143674 q 0.01,0 0.13889,-0.11494 0.1293,-0.114939 0.33523,-0.311294 0.20594,-0.196354 0.41187,-0.421444 0.20593,-0.22509 0.38792,-0.488492 0.18199,-0.263403 0.24425,-0.469336 0.0191,-0.05268 0.0191,-0.11015 0,-0.119729 -0.091,-0.229879 -0.091,-0.11015 -0.27777,-0.129307 -0.0862,0 -0.0862,-0.114939 0,-0.100572 0.0527,-0.220301 0.0527,-0.119728 0.12451,-0.16283 0.0192,-0.0096 0.0766,-0.0096 0.22509,0.01916 0.34961,0.181988 0.12451,0.16283 0.1293,0.411866 0,0.651323 -0.81894,1.647464 -0.37355,0.426233 -0.85725,0.852467 -0.48371,0.426233 -0.56512,0.426233 -0.0623,0 -0.0623,-0.114939 0,-0.0096 0.0287,-0.205933 0.0287,-0.196355 0.0623,-0.536384 0.0335,-0.340029 0.0335,-0.684847 0,-0.411866 -0.0527,-0.72316 -0.0527,-0.311294 -0.1293,-0.488492 -0.0766,-0.177198 -0.18678,-0.287349 -0.11015,-0.11015 -0.20593,-0.143674 -0.0958,-0.03352 -0.20115,-0.03352 -0.0766,0 -0.0766,-0.06226 z"
       style="fill:#000000;stroke:#000000;stroke-width:0" />
    <path
       id="use1-75"
       d="m 149.71676,55.702632 q 0,-0.03352 -0.27292,-0.04309 -0.11013,0 -0.14364,-0.0048 -0.0335,-0.0048 -0.0335,-0.04309 0,-0.0096 0.01,-0.06703 0.0287,-0.09576 0.0479,-0.10055 0.01,-0.0048 0.0527,-0.0048 h 0.0239 q 0.19631,0.0096 0.65117,0.0096 0.1628,0 0.30165,0 0.13886,0 0.21547,-0.0048 0.0766,-0.0048 0.0958,0 0.0814,0 0.0814,0.03831 0,0.02394 -0.0144,0.06703 -0.005,0.0096 -0.005,0.02873 0,0.01915 -0.005,0.02873 -0.005,0.0096 -0.01,0.01915 -0.005,0.0096 -0.0144,0.01436 -0.01,0.0048 -0.0191,0.0096 -0.01,0.0048 -0.0335,0.0048 -0.0239,0 -0.0431,0.0048 -0.0191,0.0048 -0.067,0 -0.19152,0.0048 -0.24419,0.01437 -0.0527,0.0096 -0.0862,0.05267 l -0.38783,1.522607 q 0.005,0 0.881,-0.689482 0.87622,-0.689483 0.90016,-0.708635 0.067,-0.06703 0.067,-0.110125 0,-0.07182 -0.1197,-0.0814 -0.0766,0 -0.0766,-0.05267 0,-0.0096 0.0144,-0.06703 0.0144,-0.05746 0.0239,-0.07182 0.0144,-0.02394 0.0814,-0.02394 0.0191,0 0.16758,0.0048 0.14843,0.0048 0.38304,0.0048 0.11013,0 0.22983,-0.0048 0.1197,-0.0048 0.14364,-0.0048 0.0958,0 0.0958,0.04788 0,0.105337 -0.0383,0.143642 -0.0144,0.02394 -0.091,0.02394 -0.35911,0.02394 -0.65118,0.244192 -0.0766,0.04788 -0.33517,0.24898 -0.25855,0.201099 -0.4788,0.378257 l -0.22504,0.177159 0.0431,0.105337 q 0.0431,0.105338 0.13407,0.320801 0.091,0.215463 0.16758,0.406986 0.3591,0.847488 0.38304,0.876217 0.01,0.0096 0.0239,0.01915 0.067,0.04788 0.2442,0.05267 h 0.10055 q 0.0287,0.0383 0.0287,0.04309 0,0.0048 -0.0144,0.08619 -0.0191,0.06225 -0.0479,0.09097 h -0.0527 q -0.19152,-0.01436 -0.45487,-0.01436 -0.58414,0 -0.65596,0.01436 h -0.0479 q -0.0287,-0.02873 -0.0287,-0.04309 0,-0.01436 0.01,-0.08619 0.0192,-0.06225 0.0287,-0.07661 0.01,-0.01436 0.0527,-0.01436 h 0.0144 q 0.2394,0 0.2394,-0.119702 0,-0.01915 -0.12928,-0.335165 -0.12928,-0.316012 -0.15322,-0.359105 l -0.2777,-0.660754 -0.32559,0.253768 -0.32559,0.253768 -0.11013,0.44529 q -0.11012,0.440503 -0.11012,0.464443 0,0.03352 0.0383,0.04309 0.0383,0.0096 0.23941,0.01436 h 0.14843 q 0.0287,0.04309 0.0287,0.05267 0,0.07661 -0.0335,0.143642 -0.0239,0.02394 -0.0766,0.02394 -0.0144,0 -0.17716,-0.0048 -0.16279,-0.0048 -0.47881,-0.0048 -0.29686,0 -0.45486,0 -0.15801,0 -0.17237,0.0048 -0.0862,0 -0.0862,-0.04788 0,-0.0096 0.0144,-0.06703 0.0192,-0.07661 0.0383,-0.08619 0.0191,-0.0096 0.11012,-0.01436 0.12928,0 0.28729,-0.01436 0.067,-0.01436 0.091,-0.05746 0.0144,-0.01915 0.34474,-1.331084 0.33038,-1.311931 0.33038,-1.383752 z"
       style="fill:#000000;stroke:#000000;stroke-width:0" />
    <path
       style="fill:none;stroke:#000000;stroke-width:0.5;stroke-linecap:butt;stroke-linejoin:miter;stroke-dasharray:none;stroke-opacity:1"
       d="m 131.77436,135.9107 1.68679,-1.3635"
       id="path3" />
    <path
       style="fill:none;stroke-width:1.44822;stroke-linejoin:bevel;stroke-miterlimit:4.3;stroke-dasharray:none"
       d="m 312.42626,575.46013 c -12.54849,-1.32524 -19.99284,-2.95375 -21.29538,-4.65854 -1.01408,-1.32724 -1.72183,-1.52136 -3.99321,-1.09524 -5.46123,1.02453 -23.44063,-6.49889 -36.89052,-15.43673 -13.6059,-9.04152 -27.61812,-24.80656 -34.86535,-39.22678 -25.65328,-51.04369 -9.41095,-123.86398 42.02678,-188.42135 6.96056,-8.73591 14.34126,-16.79238 14.88588,-16.24881 0.47239,0.47148 97.8516,261.58991 97.62963,261.78992 -0.50952,0.4591 -16.05092,2.66199 -23.53285,3.33561 -10.06792,0.90646 -25.18169,0.88952 -33.96498,-0.0381 z m -3.25785,-6.49829 c 1.41945,-1.41944 1.60461,-6.51872 0.28465,-7.83869 -2.41443,-2.41443 -5.2112,-0.0854 -5.2112,4.33973 0,2.17835 1.64564,4.70323 3.06541,4.70323 0.36128,0 1.1988,-0.54192 1.86114,-1.20427 z m -7.17432,-3.45058 c 1.48228,-2.34214 0.38758,-3.13544 -1.24526,-0.90241 -1.42434,1.9479 -2.0751,0.76498 -1.21789,-2.21381 0.40751,-1.41608 0.77203,-2.14361 0.81004,-1.61674 0.038,0.52686 0.6104,0.95794 1.27195,0.95794 0.80904,0 1.12265,-0.56451 0.95794,-1.7243 -0.20675,-1.45571 -0.75284,-1.74357 -3.50593,-1.84806 -2.53218,-0.0961 -3.51314,0.23614 -4.3889,1.48647 -1.48945,2.12649 -0.80656,2.6943 1.13125,0.94061 1.492,-1.35024 1.5374,-1.34441 1.5374,0.19747 0,0.87384 -0.22042,2.16321 -0.48982,2.86527 -0.38756,1.00994 -0.62091,1.06437 -1.11762,0.26067 -0.85422,-1.38216 -2.60099,0.33302 -1.98198,1.94614 0.58116,1.51447 7.2379,1.23229 8.23882,-0.34925 z"
       id="path4"
       transform="scale(0.26458333)" />
    <path
       style="fill:none;stroke-width:1.44822;stroke-linejoin:bevel;stroke-miterlimit:4.3;stroke-dasharray:none"
       d="m 312.42626,575.46013 c -12.54849,-1.32524 -19.99284,-2.95375 -21.29538,-4.65854 -1.01408,-1.32724 -1.72183,-1.52136 -3.99321,-1.09524 -5.46123,1.02453 -23.44063,-6.49889 -36.89052,-15.43673 -13.6059,-9.04152 -27.61812,-24.80656 -34.86535,-39.22678 -25.65328,-51.04369 -9.41095,-123.86398 42.02678,-188.42135 6.96056,-8.73591 14.34126,-16.79238 14.88588,-16.24881 0.47239,0.47148 97.8516,261.58991 97.62963,261.78992 -0.50952,0.4591 -16.05092,2.66199 -23.53285,3.33561 -10.06792,0.90646 -25.18169,0.88952 -33.96498,-0.0381 z m -3.25785,-6.49829 c 1.41945,-1.41944 1.60461,-6.51872 0.28465,-7.83869 -2.41443,-2.41443 -5.2112,-0.0854 -5.2112,4.33973 0,2.17835 1.64564,4.70323 3.06541,4.70323 0.36128,0 1.1988,-0.54192 1.86114,-1.20427 z m -7.17432,-3.45058 c 1.48228,-2.34214 0.38758,-3.13544 -1.24526,-0.90241 -1.42434,1.9479 -2.0751,0.76498 -1.21789,-2.21381 0.40751,-1.41608 0.77203,-2.14361 0.81004,-1.61674 0.038,0.52686 0.6104,0.95794 1.27195,0.95794 0.80904,0 1.12265,-0.56451 0.95794,-1.7243 -0.20675,-1.45571 -0.75284,-1.74357 -3.50593,-1.84806 -2.53218,-0.0961 -3.51314,0.23614 -4.3889,1.48647 -1.48945,2.12649 -0.80656,2.6943 1.13125,0.94061 1.492,-1.35024 1.5374,-1.34441 1.5374,0.19747 0,0.87384 -0.22042,2.16321 -0.48982,2.86527 -0.38756,1.00994 -0.62091,1.06437 -1.11762,0.26067 -0.85422,-1.38216 -2.60099,0.33302 -1.98198,1.94614 0.58116,1.51447 7.2379,1.23229 8.23882,-0.34925 z"
       id="path5"
       transform="scale(0.26458333)" />
    <path
       style="fill:none;stroke-width:1.44822;stroke-linejoin:bevel;stroke-miterlimit:4.3;stroke-dasharray:none"
       d="m 312.42626,575.46013 c -12.54849,-1.32524 -19.99284,-2.95375 -21.29538,-4.65854 -1.01408,-1.32724 -1.72183,-1.52136 -3.99321,-1.09524 -5.46123,1.02453 -23.44063,-6.49889 -36.89052,-15.43673 -13.6059,-9.04152 -27.61812,-24.80656 -34.86535,-39.22678 -25.65328,-51.04369 -9.41095,-123.86398 42.02678,-188.42135 6.96056,-8.73591 14.34126,-16.79238 14.88588,-16.24881 0.47239,0.47148 97.8516,261.58991 97.62963,261.78992 -0.50952,0.4591 -16.05092,2.66199 -23.53285,3.33561 -10.06792,0.90646 -25.18169,0.88952 -33.96498,-0.0381 z"
       id="path6"
       transform="scale(0.26458333)" />
    <path
       style="fill:none;stroke-width:1.44822;stroke-linejoin:bevel;stroke-miterlimit:4.3;stroke-dasharray:none;stroke:none"
       d="m 312.42626,575.46013 c -12.54849,-1.32524 -19.99284,-2.95375 -21.29538,-4.65854 -1.01408,-1.32724 -1.72183,-1.52136 -3.99321,-1.09524 -5.46123,1.02453 -23.44063,-6.49889 -36.89052,-15.43673 -13.6059,-9.04152 -27.61812,-24.80656 -34.86535,-39.22678 -25.65328,-51.04369 -9.41095,-123.86398 42.02678,-188.42135 6.96056,-8.73591 14.34126,-16.79238 14.88588,-16.24881 0.47239,0.47148 97.8516,261.58991 97.62963,261.78992 -0.50952,0.4591 -16.05092,2.66199 -23.53285,3.33561 -10.06792,0.90646 -25.18169,0.88952 -33.96498,-0.0381 z"
       id="path7"
       transform="scale(0.26458333)" />
    <path
       style="fill:url(#pattern71);stroke-width:2.07874019;stroke-linejoin:bevel;stroke-miterlimit:4.3;stroke-dasharray:none;fill-opacity:1;stroke:none"
       d="m 311.13903,574.25829 c -13.78799,-2.13891 -16.71457,-2.78891 -18.55301,-4.1207 -1.34258,-0.97257 -3.31474,-1.50418 -5.58022,-1.50418 -4.84006,0 -11.31044,-2.26441 -22.99743,-8.0483 -12.04636,-5.96173 -20.90659,-12.49382 -30.04641,-22.1513 -18.96375,-20.03782 -28.00347,-42.3115 -29.13138,-71.7791 -0.67104,-17.53119 1.41574,-33.19454 7.01334,-52.64211 9.36107,-32.52289 30.3826,-69.15621 56.53616,-98.52312 l 3.29181,-3.69626 13.30207,35.49988 c 17.00082,45.3709 68.41339,183.32497 76.91961,206.39644 l 6.49856,17.6261 -3.14534,0.57813 c -10.53817,1.93698 -22.84841,2.86124 -36.84195,2.76609 -8.44246,-0.0574 -16.21207,-0.2381 -17.26581,-0.40157 z"
       id="path8"
       transform="scale(0.26458333)" />
  </g>
</svg>
