<?xml version="1.0" encoding="UTF-8" standalone="no"?>
<!-- Created with Inkscape (http://www.inkscape.org/) -->

<svg
   width="210mm"
   height="297mm"
   viewBox="0 0 210 297"
   version="1.1"
   id="svg1"
   inkscape:version="1.3.2 (091e20e, 2023-11-25)"
   sodipodi:docname="spectrum topology  larger.svg"
   xmlns:inkscape="http://www.inkscape.org/namespaces/inkscape"
   xmlns:sodipodi="http://sodipodi.sourceforge.net/DTD/sodipodi-0.dtd"
   xmlns="http://www.w3.org/2000/svg"
   xmlns:svg="http://www.w3.org/2000/svg">
  <sodipodi:namedview
     id="namedview1"
     pagecolor="#ffffff"
     bordercolor="#666666"
     borderopacity="1.0"
     inkscape:showpageshadow="2"
     inkscape:pageopacity="0.0"
     inkscape:pagecheckerboard="0"
     inkscape:deskcolor="#d1d1d1"
     inkscape:document-units="mm"
     inkscape:zoom="0.93364116"
     inkscape:cx="321.85813"
     inkscape:cy="377.55405"
     inkscape:window-width="1440"
     inkscape:window-height="872"
     inkscape:window-x="0"
     inkscape:window-y="28"
     inkscape:window-maximized="0"
     inkscape:current-layer="layer1" />
  <defs
     id="defs1">
    <inkscape:path-effect
       effect="bspline"
       id="path-effect44-1"
       is_visible="true"
       lpeversion="1.3"
       weight="33.333333"
       steps="2"
       helper_size="0"
       apply_no_weight="true"
       apply_with_weight="true"
       only_selected="false"
       uniform="false" />
  </defs>
  <g
     inkscape:label="Layer 1"
     inkscape:groupmode="layer"
     id="layer1">
    <path
       style="fill:none;fill-opacity:1;stroke:none;stroke-width:0.25;stroke-linejoin:bevel;stroke-miterlimit:4.3;stroke-dasharray:none"
       d="m 99.805983,138.30714 c -7.58334,-0.37475 -15.31751,-1.67953 -27.80325,-4.69049 -12.96359,-3.12619 -15.21168,-3.93093 -17.5348,-6.27682 -2.55821,-2.58327 -3.83636,-6.0718 -4.13526,-11.28655 -0.41755,-7.28505 1.30622,-16.111891 4.36179,-22.335111 4.18178,-8.516972 11.71866,-13.262721 23.81525,-14.995744 4.64187,-0.665018 8.8452,-0.917572 22.409307,-1.346444 13.59983,-0.430001 18.99028,-0.05957 24.16818,1.660834 5.95524,1.978681 10.92228,6.25115 13.88809,11.946014 2.0502,3.93673 2.90646,7.39375 2.91247,11.758651 0.008,6.02495 -1.93267,12.0562 -5.76453,17.91239 -6.62043,10.11793 -16.22266,16.15329 -27.72246,17.42459 -2.59168,0.28651 -5.73314,0.37009 -8.594787,0.22868 z m -7.01951,-9.59568 c 1.09243,-0.51241 2.09441,-1.4187 2.68737,-2.43072 0.58861,-1.00459 1.07105,-3.10397 0.71329,-3.10397 -0.0722,0 -0.17605,0.35809 -0.23073,0.79575 -0.14225,1.13856 -0.83959,2.50631 -1.71014,3.35425 -2.91287,2.83722 -7.6465,1.96353 -9.39824,-1.73465 -0.43211,-0.91226 -0.47628,-1.13622 -0.47628,-2.41535 0,-1.27913 0.0442,-1.50309 0.47628,-2.41535 1.74946,-3.69336 6.48917,-4.56818 9.39824,-1.73465 0.84561,0.82364 1.55305,2.18272 1.70275,3.27113 0.0553,0.40176 0.16856,0.73046 0.25179,0.73046 0.20314,0 0.0163,-1.20864 -0.32622,-2.11001 -0.33348,-0.87765 -1.17447,-2.03455 -1.85794,-2.55586 -0.28723,-0.21908 -0.90527,-0.57784 -1.37342,-0.79725 -0.76214,-0.35719 -1.02193,-0.39891 -2.48364,-0.39891 -1.528,0 -1.69648,0.0303 -2.63283,0.47388 -3.79511,1.79776 -4.6949,6.90471 -1.73759,9.86203 1.28352,1.28352 2.59254,1.77249 4.59303,1.71569 1.22263,-0.0347 1.54192,-0.10197 2.40428,-0.50647 z m 30.691697,-13.0359 c 5.21909,-0.72794 8.51967,-2.78335 8.096,-5.04173 -0.21591,-1.15091 -2.01204,-2.52433 -4.33012,-3.31104 -1.98635,-0.67414 -3.72094,-0.93377 -6.81502,-1.02008 -4.60205,-0.12836 -7.69164,0.36538 -10.38304,1.6593 -2.40376,1.15562 -3.31739,2.50642 -2.69042,3.97777 0.69501,1.631 3.90418,3.16318 7.81043,3.72899 1.97421,0.28596 6.28538,0.28948 8.31217,0.007 z m -42.369897,-4.30147 c 3.26003,-0.56851 5.51489,-2.215 6.90415,-5.04141 1.14499,-2.32944 1.62939,-4.73236 1.62516,-8.061761 -0.003,-2.282 -0.24113,-3.69265 -0.82524,-4.88653 -0.73327,-1.49875 -1.75993,-1.60453 -4.66735,-0.48085 -4.39028,1.69677 -5.3943,1.6269 -11.64573,-0.81045 -3.96817,-1.54714 -5.5461,-1.50787 -7.05978,0.17571 -0.87625,0.9746 -1.37822,1.94814 -2.58379,5.01111 -0.54615,1.3876 -1.59163,3.720401 -2.32328,5.184011 -0.97371,1.94781 -1.31836,2.78317 -1.28578,3.11652 0.0433,0.44362 0.0637,0.4551 0.78652,0.44269 0.60453,-0.0104 1.36078,-0.28955 4.08117,-1.50657 4.23241,-1.89346 5.55892,-2.29493 5.89035,-1.78273 0.066,0.10203 0.12005,1.15386 0.12006,2.3374 3e-5,2.05838 0.0182,2.1888 0.4172,3.0014 0.45503,0.92664 1.28624,1.73333 2.32835,2.25968 2.2409,1.13184 5.41775,1.53358 8.23799,1.04178 z M 113.27736,97.096649 c 4.82997,-2.26912 4.83366,-9.22046 0.006,-11.506994 -0.95722,-0.453381 -1.10281,-0.47904 -2.71806,-0.47904 -1.60406,0 -1.76467,0.02775 -2.67131,0.461596 -1.78517,0.854233 -3.00866,2.306808 -3.48126,4.133068 -0.86862,3.35663 0.95298,6.6398 4.29749,7.7456 0.37415,0.1237 1.14232,0.18181 2.07769,0.15716 1.31277,-0.0346 1.60009,-0.0936 2.48934,-0.51139 z"
       id="path13-7" />
    <path
       style="fill:none;stroke:#000000;stroke-width:0.25;stroke-linecap:butt;stroke-linejoin:miter;stroke-dasharray:none;stroke-opacity:1"
       d="m 89.822535,77.300737 c -0.0094,-0.06071 -0.01889,-0.121452 -0.02834,-0.182179"
       id="path43-4"
       inkscape:path-effect="#path-effect44-1"
       inkscape:original-d="m 89.822535,77.300737 c -0.0094,-0.06072 -0.01889,-0.121452 -0.02834,-0.182179"
       transform="matrix(0.99562765,0.1056926,-0.11412132,0.92209299,50.883073,30.322904)" />
    <path
       style="fill:#b3b3b3;fill-opacity:1;stroke:#000000;stroke-width:0.341;stroke-linejoin:bevel;stroke-miterlimit:4.3;stroke-dasharray:none;stroke-opacity:1"
       d="m 92.729623,136.61549 c -5.39518,-0.70861 -14.53464,-2.58118 -23.16938,-4.74712 -12.16208,-3.05074 -13.92906,-3.84765 -16.1498,-7.28357 -2.13117,-3.29733 -2.59186,-5.42958 -2.57929,-11.93779 0.0117,-6.05115 0.4874,-9.33865 2.08922,-14.437936 3.70059,-11.780623 11.06862,-17.801252 24.64693,-20.139726 4.11552,-0.708779 10.47582,-1.133041 22.999027,-1.534142 18.12703,-0.580583 23.92211,0.260128 30.2249,4.384821 4.57152,2.991715 8.16099,7.705902 10.01829,13.157398 0.76381,2.241918 0.95311,3.481895 1.06636,6.984895 0.11994,3.71025 0.0288,4.6814 -0.70767,7.53648 -2.52225,9.7787 -9.86747,19.24524 -18.68496,24.08122 -3.21104,1.76111 -7.77692,3.35481 -11.44293,3.99411 -3.68514,0.64263 -13.203517,0.61215 -18.310697,-0.0586 z m -11.76533,-26.03492 c 4.44684,-0.72147 7.07228,-3.11097 8.39905,-7.64426 0.71997,-2.45999 0.82674,-7.944496 0.19018,-9.768626 -0.83056,-2.380019 -1.91009,-2.585421 -5.91746,-1.125916 -3.25447,1.185291 -5.42103,1.037194 -9.81675,-0.671033 -6.65976,-2.588064 -8.02382,-2.050137 -10.55682,4.163166 -0.5902,1.447731 -1.78415,4.137138 -2.65322,5.976459 -1.31475,2.78256 -1.49693,3.39642 -1.08475,3.65503 0.61914,0.38846 1.06582,0.25076 5.21836,-1.6086 3.49786,-1.56622 5.31248,-2.10883 5.35103,-1.60007 0.0124,0.16398 0.0558,1.32857 0.0963,2.588 0.0538,1.67171 0.25947,2.54551 0.76175,3.2369 0.89388,1.23042 3.43001,2.48753 5.68127,2.8161 0.98222,0.14336 1.86251,0.27861 1.95621,0.30058 0.0937,0.022 1.16236,-0.12102 2.37481,-0.31773 z M 114.13837,96.032418 c 0.58836,-0.343625 1.5293,-1.278631 2.09097,-2.077789 2.02712,-2.884233 1.02849,-7.300113 -2.06023,-9.110226 -1.88891,-1.106971 -4.77656,-1.1309 -6.69009,-0.05543 -1.42627,0.801608 -2.77234,2.749904 -3.14804,4.55645 -0.56209,2.702824 1.66642,6.454079 4.31445,7.262516 1.52101,0.46436 4.1915,0.18456 5.49294,-0.575519 z"
       id="path45" />
    <path
       style="fill:#b3b3b3;fill-opacity:1;stroke:#b3b3b3;stroke-width:0.341;stroke-linejoin:bevel;stroke-miterlimit:4.3;stroke-dasharray:none;stroke-opacity:1"
       id="path115"
       sodipodi:type="arc"
       sodipodi:cx="75.112968"
       sodipodi:cy="99.632446"
       sodipodi:rx="18.993614"
       sodipodi:ry="12.844042"
       sodipodi:start="0"
       sodipodi:end="6.2542963"
       sodipodi:open="true"
       sodipodi:arc-type="arc"
       d="M 94.106583,99.632446 A 18.993614,12.844042 0 0 1 75.250144,112.47615 18.993614,12.844042 0 0 1 56.121336,99.817966 18.993614,12.844042 0 0 1 74.701471,86.791419 18.993614,12.844042 0 0 1 94.098657,99.261446" />
  </g>
</svg>
